<mxfile host="app.diagrams.net" agent="Mozilla/5.0 (Windows NT 10.0; Win64; x64) AppleWebKit/537.36 (KHTML, like Gecko) Chrome/130.0.0.0 Safari/537.36" version="24.8.6">
  <diagram name="Page-1" id="-knH5uUlvBjElhwXGGyA">
    <mxGraphModel dx="2759" dy="1013" grid="1" gridSize="10" guides="1" tooltips="1" connect="1" arrows="1" fold="1" page="1" pageScale="1" pageWidth="850" pageHeight="1100" math="0" shadow="0">
      <root>
        <mxCell id="0" />
        <mxCell id="1" parent="0" />
        <mxCell id="e4IndN7CPXICkh4UjXAd-269" value="penjaga kantin" style="shape=umlActor;verticalLabelPosition=bottom;verticalAlign=top;html=1;outlineConnect=0;" vertex="1" parent="1">
          <mxGeometry x="-810" y="210" width="30" height="60" as="geometry" />
        </mxCell>
        <mxCell id="e4IndN7CPXICkh4UjXAd-275" value="login" style="ellipse;whiteSpace=wrap;html=1;" vertex="1" parent="1">
          <mxGeometry x="-410" y="50" width="120" height="50" as="geometry" />
        </mxCell>
        <mxCell id="e4IndN7CPXICkh4UjXAd-277" value="" style="endArrow=classic;html=1;rounded=0;exitX=1;exitY=0.3333333333333333;exitDx=0;exitDy=0;exitPerimeter=0;entryX=0;entryY=0.5;entryDx=0;entryDy=0;" edge="1" parent="1" source="e4IndN7CPXICkh4UjXAd-269" target="e4IndN7CPXICkh4UjXAd-275">
          <mxGeometry width="50" height="50" relative="1" as="geometry">
            <mxPoint x="-550" y="190" as="sourcePoint" />
            <mxPoint x="-500" y="140" as="targetPoint" />
          </mxGeometry>
        </mxCell>
        <mxCell id="e4IndN7CPXICkh4UjXAd-278" value="" style="endArrow=classic;html=1;rounded=0;exitX=1;exitY=0.3333333333333333;exitDx=0;exitDy=0;exitPerimeter=0;" edge="1" parent="1" source="e4IndN7CPXICkh4UjXAd-269" target="e4IndN7CPXICkh4UjXAd-279">
          <mxGeometry width="50" height="50" relative="1" as="geometry">
            <mxPoint x="-550" y="190" as="sourcePoint" />
            <mxPoint x="-580" y="180" as="targetPoint" />
          </mxGeometry>
        </mxCell>
        <mxCell id="e4IndN7CPXICkh4UjXAd-279" value="input menu baru" style="ellipse;whiteSpace=wrap;html=1;" vertex="1" parent="1">
          <mxGeometry x="-620" y="160" width="120" height="40" as="geometry" />
        </mxCell>
        <mxCell id="e4IndN7CPXICkh4UjXAd-280" value="" style="endArrow=classic;html=1;rounded=0;entryX=0.215;entryY=0.847;entryDx=0;entryDy=0;entryPerimeter=0;exitX=0.945;exitY=0.274;exitDx=0;exitDy=0;exitPerimeter=0;" edge="1" parent="1" target="e4IndN7CPXICkh4UjXAd-275">
          <mxGeometry width="50" height="50" relative="1" as="geometry">
            <mxPoint x="-529.9999999999999" y="162.96000000000004" as="sourcePoint" />
            <mxPoint x="-380.48000000000013" y="92" as="targetPoint" />
          </mxGeometry>
        </mxCell>
        <mxCell id="e4IndN7CPXICkh4UjXAd-281" value="include" style="text;html=1;align=center;verticalAlign=middle;resizable=0;points=[];autosize=1;strokeColor=none;fillColor=none;rotation=-30;" vertex="1" parent="1">
          <mxGeometry x="-500" y="110" width="60" height="30" as="geometry" />
        </mxCell>
        <mxCell id="e4IndN7CPXICkh4UjXAd-283" value="" style="endArrow=classic;html=1;rounded=0;exitX=1;exitY=0.3333333333333333;exitDx=0;exitDy=0;exitPerimeter=0;" edge="1" parent="1" source="e4IndN7CPXICkh4UjXAd-269">
          <mxGeometry width="50" height="50" relative="1" as="geometry">
            <mxPoint x="-440" y="240" as="sourcePoint" />
            <mxPoint x="-480" y="220" as="targetPoint" />
          </mxGeometry>
        </mxCell>
        <mxCell id="e4IndN7CPXICkh4UjXAd-284" value="update status stock" style="ellipse;whiteSpace=wrap;html=1;" vertex="1" parent="1">
          <mxGeometry x="-480" y="190" width="160" height="60" as="geometry" />
        </mxCell>
        <mxCell id="e4IndN7CPXICkh4UjXAd-285" value="" style="endArrow=classic;html=1;rounded=0;entryX=0.603;entryY=0.958;entryDx=0;entryDy=0;entryPerimeter=0;exitX=0.5;exitY=0;exitDx=0;exitDy=0;" edge="1" parent="1" source="e4IndN7CPXICkh4UjXAd-284" target="e4IndN7CPXICkh4UjXAd-275">
          <mxGeometry width="50" height="50" relative="1" as="geometry">
            <mxPoint x="-440" y="240" as="sourcePoint" />
            <mxPoint x="-390" y="190" as="targetPoint" />
          </mxGeometry>
        </mxCell>
        <mxCell id="e4IndN7CPXICkh4UjXAd-286" value="include" style="text;html=1;align=center;verticalAlign=middle;whiteSpace=wrap;rounded=0;rotation=-60;" vertex="1" parent="1">
          <mxGeometry x="-410" y="130" width="60" height="30" as="geometry" />
        </mxCell>
        <mxCell id="e4IndN7CPXICkh4UjXAd-288" value="" style="endArrow=classic;html=1;rounded=0;exitX=1;exitY=0.3333333333333333;exitDx=0;exitDy=0;exitPerimeter=0;" edge="1" parent="1" source="e4IndN7CPXICkh4UjXAd-269" target="e4IndN7CPXICkh4UjXAd-289">
          <mxGeometry width="50" height="50" relative="1" as="geometry">
            <mxPoint x="-440" y="240" as="sourcePoint" />
            <mxPoint x="-630" y="260" as="targetPoint" />
          </mxGeometry>
        </mxCell>
        <mxCell id="e4IndN7CPXICkh4UjXAd-289" value="permintaan stock" style="ellipse;whiteSpace=wrap;html=1;" vertex="1" parent="1">
          <mxGeometry x="-650" y="280" width="120" height="40" as="geometry" />
        </mxCell>
        <mxCell id="e4IndN7CPXICkh4UjXAd-290" value="" style="endArrow=classic;html=1;rounded=0;" edge="1" parent="1" source="e4IndN7CPXICkh4UjXAd-289" target="e4IndN7CPXICkh4UjXAd-284">
          <mxGeometry width="50" height="50" relative="1" as="geometry">
            <mxPoint x="-430" y="220" as="sourcePoint" />
            <mxPoint x="-380" y="170" as="targetPoint" />
          </mxGeometry>
        </mxCell>
        <mxCell id="e4IndN7CPXICkh4UjXAd-291" value="include" style="text;html=1;align=center;verticalAlign=middle;whiteSpace=wrap;rounded=0;rotation=-25;" vertex="1" parent="1">
          <mxGeometry x="-540" y="240" width="60" height="30" as="geometry" />
        </mxCell>
        <mxCell id="e4IndN7CPXICkh4UjXAd-292" value="&lt;font style=&quot;font-size: 20px;&quot;&gt;INPUT DAN PEMBARUAN MENU&lt;/font&gt;" style="text;html=1;align=center;verticalAlign=middle;whiteSpace=wrap;rounded=0;" vertex="1" parent="1">
          <mxGeometry x="-730" y="20" width="300" height="20" as="geometry" />
        </mxCell>
        <mxCell id="e4IndN7CPXICkh4UjXAd-305" value="penjaga kantin" style="shape=umlActor;verticalLabelPosition=bottom;verticalAlign=top;html=1;outlineConnect=0;" vertex="1" parent="1">
          <mxGeometry x="-810" y="680" width="40" height="90" as="geometry" />
        </mxCell>
        <mxCell id="e4IndN7CPXICkh4UjXAd-307" value="" style="endArrow=classic;html=1;rounded=0;exitX=1;exitY=0.3333333333333333;exitDx=0;exitDy=0;exitPerimeter=0;" edge="1" parent="1" source="e4IndN7CPXICkh4UjXAd-305" target="e4IndN7CPXICkh4UjXAd-308">
          <mxGeometry width="50" height="50" relative="1" as="geometry">
            <mxPoint x="-690" y="600" as="sourcePoint" />
            <mxPoint x="-560" y="580" as="targetPoint" />
          </mxGeometry>
        </mxCell>
        <mxCell id="e4IndN7CPXICkh4UjXAd-308" value="&lt;font style=&quot;font-size: 20px;&quot;&gt;login&lt;/font&gt;" style="ellipse;whiteSpace=wrap;html=1;" vertex="1" parent="1">
          <mxGeometry x="-560" y="570" width="220" height="70" as="geometry" />
        </mxCell>
        <mxCell id="e4IndN7CPXICkh4UjXAd-309" value="" style="endArrow=classic;html=1;rounded=0;exitX=1;exitY=0.3333333333333333;exitDx=0;exitDy=0;exitPerimeter=0;" edge="1" parent="1" source="e4IndN7CPXICkh4UjXAd-305" target="e4IndN7CPXICkh4UjXAd-310">
          <mxGeometry width="50" height="50" relative="1" as="geometry">
            <mxPoint x="-690" y="590" as="sourcePoint" />
            <mxPoint x="-540" y="710" as="targetPoint" />
          </mxGeometry>
        </mxCell>
        <mxCell id="e4IndN7CPXICkh4UjXAd-310" value="&lt;font style=&quot;font-size: 16px;&quot;&gt;lihat transaksi harian&lt;/font&gt;" style="ellipse;whiteSpace=wrap;html=1;" vertex="1" parent="1">
          <mxGeometry x="-600" y="700" width="270" height="50" as="geometry" />
        </mxCell>
        <mxCell id="e4IndN7CPXICkh4UjXAd-311" value="" style="endArrow=classic;html=1;rounded=0;exitX=1;exitY=0.3333333333333333;exitDx=0;exitDy=0;exitPerimeter=0;" edge="1" parent="1" source="e4IndN7CPXICkh4UjXAd-305" target="e4IndN7CPXICkh4UjXAd-312">
          <mxGeometry width="50" height="50" relative="1" as="geometry">
            <mxPoint x="-690" y="590" as="sourcePoint" />
            <mxPoint x="-600" y="840" as="targetPoint" />
          </mxGeometry>
        </mxCell>
        <mxCell id="e4IndN7CPXICkh4UjXAd-312" value="&lt;font style=&quot;font-size: 17px;&quot;&gt;cetak transaksi&lt;/font&gt;" style="ellipse;whiteSpace=wrap;html=1;" vertex="1" parent="1">
          <mxGeometry x="-660" y="800" width="210" height="60" as="geometry" />
        </mxCell>
        <mxCell id="e4IndN7CPXICkh4UjXAd-313" value="" style="endArrow=classic;html=1;rounded=0;exitX=0.5;exitY=0;exitDx=0;exitDy=0;entryX=0.5;entryY=1;entryDx=0;entryDy=0;" edge="1" parent="1" source="e4IndN7CPXICkh4UjXAd-310" target="e4IndN7CPXICkh4UjXAd-308">
          <mxGeometry width="50" height="50" relative="1" as="geometry">
            <mxPoint x="-690" y="590" as="sourcePoint" />
            <mxPoint x="-640" y="540" as="targetPoint" />
          </mxGeometry>
        </mxCell>
        <mxCell id="e4IndN7CPXICkh4UjXAd-314" value="include" style="text;html=1;align=center;verticalAlign=middle;whiteSpace=wrap;rounded=0;rotation=-75;" vertex="1" parent="1">
          <mxGeometry x="-504.73" y="650" width="69.46" height="46.29" as="geometry" />
        </mxCell>
        <mxCell id="e4IndN7CPXICkh4UjXAd-321" value="" style="endArrow=classic;html=1;rounded=0;entryX=0.443;entryY=0.953;entryDx=0;entryDy=0;entryPerimeter=0;" edge="1" parent="1" source="e4IndN7CPXICkh4UjXAd-312" target="e4IndN7CPXICkh4UjXAd-310">
          <mxGeometry width="50" height="50" relative="1" as="geometry">
            <mxPoint x="-690" y="590" as="sourcePoint" />
            <mxPoint x="-640" y="540" as="targetPoint" />
          </mxGeometry>
        </mxCell>
        <mxCell id="e4IndN7CPXICkh4UjXAd-322" value="include" style="text;html=1;align=center;verticalAlign=middle;whiteSpace=wrap;rounded=0;rotation=-45;" vertex="1" parent="1">
          <mxGeometry x="-550" y="760" width="60" height="30" as="geometry" />
        </mxCell>
        <mxCell id="e4IndN7CPXICkh4UjXAd-323" value="&lt;font style=&quot;font-size: 25px;&quot;&gt;REKAP TRANSAKSI HARIAN&lt;/font&gt;" style="text;html=1;align=center;verticalAlign=middle;whiteSpace=wrap;rounded=0;" vertex="1" parent="1">
          <mxGeometry x="-810" y="510" width="320" height="30" as="geometry" />
        </mxCell>
        <mxCell id="e4IndN7CPXICkh4UjXAd-324" style="edgeStyle=orthogonalEdgeStyle;rounded=0;orthogonalLoop=1;jettySize=auto;html=1;exitX=0.5;exitY=0;exitDx=0;exitDy=0;entryX=0.5;entryY=1;entryDx=0;entryDy=0;" edge="1" parent="1" source="e4IndN7CPXICkh4UjXAd-323" target="e4IndN7CPXICkh4UjXAd-323">
          <mxGeometry relative="1" as="geometry" />
        </mxCell>
        <mxCell id="e4IndN7CPXICkh4UjXAd-325" value="supplier" style="shape=umlActor;verticalLabelPosition=bottom;verticalAlign=top;html=1;outlineConnect=0;" vertex="1" parent="1">
          <mxGeometry x="-815" y="1260" width="45" height="80" as="geometry" />
        </mxCell>
        <mxCell id="e4IndN7CPXICkh4UjXAd-327" value="" style="endArrow=classic;html=1;rounded=0;exitX=1;exitY=0.3333333333333333;exitDx=0;exitDy=0;exitPerimeter=0;" edge="1" parent="1" source="e4IndN7CPXICkh4UjXAd-325" target="e4IndN7CPXICkh4UjXAd-328">
          <mxGeometry width="50" height="50" relative="1" as="geometry">
            <mxPoint x="-690" y="1100" as="sourcePoint" />
            <mxPoint x="-680" y="1200" as="targetPoint" />
          </mxGeometry>
        </mxCell>
        <mxCell id="e4IndN7CPXICkh4UjXAd-328" value="LOGIN" style="ellipse;whiteSpace=wrap;html=1;" vertex="1" parent="1">
          <mxGeometry x="-660" y="1160" width="170" height="60" as="geometry" />
        </mxCell>
        <mxCell id="e4IndN7CPXICkh4UjXAd-329" value="" style="endArrow=classic;html=1;rounded=0;exitX=1;exitY=0.3333333333333333;exitDx=0;exitDy=0;exitPerimeter=0;" edge="1" parent="1" source="e4IndN7CPXICkh4UjXAd-325">
          <mxGeometry width="50" height="50" relative="1" as="geometry">
            <mxPoint x="-690" y="1100" as="sourcePoint" />
            <mxPoint x="-660" y="1287" as="targetPoint" />
          </mxGeometry>
        </mxCell>
        <mxCell id="e4IndN7CPXICkh4UjXAd-330" value="KONFIRMASI STOK" style="ellipse;whiteSpace=wrap;html=1;" vertex="1" parent="1">
          <mxGeometry x="-660" y="1260" width="180" height="60" as="geometry" />
        </mxCell>
        <mxCell id="e4IndN7CPXICkh4UjXAd-331" value="" style="endArrow=classic;html=1;rounded=0;exitX=1;exitY=0.3333333333333333;exitDx=0;exitDy=0;exitPerimeter=0;" edge="1" parent="1" source="e4IndN7CPXICkh4UjXAd-325">
          <mxGeometry width="50" height="50" relative="1" as="geometry">
            <mxPoint x="-690" y="1360" as="sourcePoint" />
            <mxPoint x="-680" y="1360" as="targetPoint" />
          </mxGeometry>
        </mxCell>
        <mxCell id="e4IndN7CPXICkh4UjXAd-332" value="TAMBAH STOK" style="ellipse;whiteSpace=wrap;html=1;" vertex="1" parent="1">
          <mxGeometry x="-690" y="1350" width="130" height="40" as="geometry" />
        </mxCell>
        <mxCell id="e4IndN7CPXICkh4UjXAd-334" value="" style="endArrow=classic;html=1;rounded=0;entryX=1;entryY=1;entryDx=0;entryDy=0;" edge="1" parent="1" source="e4IndN7CPXICkh4UjXAd-332" target="e4IndN7CPXICkh4UjXAd-330">
          <mxGeometry width="50" height="50" relative="1" as="geometry">
            <mxPoint x="-690" y="1360" as="sourcePoint" />
            <mxPoint x="-640" y="1310" as="targetPoint" />
          </mxGeometry>
        </mxCell>
        <mxCell id="e4IndN7CPXICkh4UjXAd-335" value="include" style="text;html=1;align=center;verticalAlign=middle;whiteSpace=wrap;rounded=0;rotation=-25;" vertex="1" parent="1">
          <mxGeometry x="-600" y="1324.69" width="40" height="20" as="geometry" />
        </mxCell>
        <mxCell id="e4IndN7CPXICkh4UjXAd-336" value="&lt;font style=&quot;font-size: 15px;&quot;&gt;PENGELOLAAN STOK BERDASARKAN PERMINTAAN&lt;/font&gt;" style="text;html=1;align=center;verticalAlign=middle;whiteSpace=wrap;rounded=0;" vertex="1" parent="1">
          <mxGeometry x="-780" y="1120" width="220" height="30" as="geometry" />
        </mxCell>
        <mxCell id="e4IndN7CPXICkh4UjXAd-337" value="PEMBELI" style="shape=umlActor;verticalLabelPosition=bottom;verticalAlign=top;html=1;outlineConnect=0;" vertex="1" parent="1">
          <mxGeometry x="-800" y="1770" width="60" height="110" as="geometry" />
        </mxCell>
        <mxCell id="e4IndN7CPXICkh4UjXAd-338" value="" style="endArrow=classic;html=1;rounded=0;exitX=1;exitY=0.3333333333333333;exitDx=0;exitDy=0;exitPerimeter=0;" edge="1" parent="1" source="e4IndN7CPXICkh4UjXAd-337">
          <mxGeometry width="50" height="50" relative="1" as="geometry">
            <mxPoint x="-560" y="1810" as="sourcePoint" />
            <mxPoint x="-560" y="1570" as="targetPoint" />
          </mxGeometry>
        </mxCell>
        <mxCell id="e4IndN7CPXICkh4UjXAd-339" value="LOGIN" style="ellipse;whiteSpace=wrap;html=1;" vertex="1" parent="1">
          <mxGeometry x="-560" y="1540" width="120" height="50" as="geometry" />
        </mxCell>
        <mxCell id="e4IndN7CPXICkh4UjXAd-340" value="" style="endArrow=classic;html=1;rounded=0;exitX=1;exitY=0.3333333333333333;exitDx=0;exitDy=0;exitPerimeter=0;" edge="1" parent="1" source="e4IndN7CPXICkh4UjXAd-337">
          <mxGeometry width="50" height="50" relative="1" as="geometry">
            <mxPoint x="-560" y="1810" as="sourcePoint" />
            <mxPoint x="-560" y="1640" as="targetPoint" />
          </mxGeometry>
        </mxCell>
        <mxCell id="e4IndN7CPXICkh4UjXAd-341" value="CEK STATUS KANTIN" style="ellipse;whiteSpace=wrap;html=1;" vertex="1" parent="1">
          <mxGeometry x="-560" y="1610" width="200" height="60" as="geometry" />
        </mxCell>
        <mxCell id="e4IndN7CPXICkh4UjXAd-342" value="" style="endArrow=classic;html=1;rounded=0;exitX=1;exitY=0.3333333333333333;exitDx=0;exitDy=0;exitPerimeter=0;" edge="1" parent="1" source="e4IndN7CPXICkh4UjXAd-337">
          <mxGeometry width="50" height="50" relative="1" as="geometry">
            <mxPoint x="-560" y="1810" as="sourcePoint" />
            <mxPoint x="-560" y="1710" as="targetPoint" />
          </mxGeometry>
        </mxCell>
        <mxCell id="e4IndN7CPXICkh4UjXAd-344" value="KONFIRMASI PENGIRIMAN" style="ellipse;whiteSpace=wrap;html=1;" vertex="1" parent="1">
          <mxGeometry x="-560" y="1680" width="220" height="60" as="geometry" />
        </mxCell>
        <mxCell id="e4IndN7CPXICkh4UjXAd-345" value="" style="shape=umlActor;verticalLabelPosition=bottom;verticalAlign=top;html=1;outlineConnect=0;" vertex="1" parent="1">
          <mxGeometry x="-200" y="1440" width="50" height="70" as="geometry" />
        </mxCell>
        <mxCell id="e4IndN7CPXICkh4UjXAd-346" value="PENJAGA KANTIN" style="text;strokeColor=none;align=center;fillColor=none;html=1;verticalAlign=middle;whiteSpace=wrap;rounded=0;" vertex="1" parent="1">
          <mxGeometry x="-200" y="1520" width="60" height="30" as="geometry" />
        </mxCell>
        <mxCell id="e4IndN7CPXICkh4UjXAd-347" value="KURIR" style="shape=umlActor;verticalLabelPosition=bottom;verticalAlign=top;html=1;outlineConnect=0;" vertex="1" parent="1">
          <mxGeometry x="-195" y="1620" width="45" height="90" as="geometry" />
        </mxCell>
        <mxCell id="e4IndN7CPXICkh4UjXAd-348" value="" style="endArrow=classic;html=1;rounded=0;exitX=0;exitY=0.3333333333333333;exitDx=0;exitDy=0;exitPerimeter=0;entryX=1;entryY=0;entryDx=0;entryDy=0;" edge="1" parent="1" source="e4IndN7CPXICkh4UjXAd-345" target="e4IndN7CPXICkh4UjXAd-339">
          <mxGeometry width="50" height="50" relative="1" as="geometry">
            <mxPoint x="-560" y="1810" as="sourcePoint" />
            <mxPoint x="-510" y="1760" as="targetPoint" />
          </mxGeometry>
        </mxCell>
        <mxCell id="e4IndN7CPXICkh4UjXAd-349" value="" style="endArrow=classic;html=1;rounded=0;entryX=1;entryY=0.5;entryDx=0;entryDy=0;exitX=0;exitY=0.3333333333333333;exitDx=0;exitDy=0;exitPerimeter=0;" edge="1" parent="1" source="e4IndN7CPXICkh4UjXAd-345" target="e4IndN7CPXICkh4UjXAd-341">
          <mxGeometry width="50" height="50" relative="1" as="geometry">
            <mxPoint x="-560" y="1810" as="sourcePoint" />
            <mxPoint x="-510" y="1760" as="targetPoint" />
          </mxGeometry>
        </mxCell>
        <mxCell id="e4IndN7CPXICkh4UjXAd-350" value="" style="endArrow=classic;html=1;rounded=0;exitX=0;exitY=0.3333333333333333;exitDx=0;exitDy=0;exitPerimeter=0;entryX=1;entryY=0.5;entryDx=0;entryDy=0;" edge="1" parent="1" source="e4IndN7CPXICkh4UjXAd-347" target="e4IndN7CPXICkh4UjXAd-341">
          <mxGeometry width="50" height="50" relative="1" as="geometry">
            <mxPoint x="-560" y="1810" as="sourcePoint" />
            <mxPoint x="-510" y="1760" as="targetPoint" />
          </mxGeometry>
        </mxCell>
        <mxCell id="e4IndN7CPXICkh4UjXAd-351" value="" style="endArrow=classic;html=1;rounded=0;exitX=0;exitY=0.3333333333333333;exitDx=0;exitDy=0;exitPerimeter=0;entryX=1;entryY=0.5;entryDx=0;entryDy=0;" edge="1" parent="1" source="e4IndN7CPXICkh4UjXAd-347" target="e4IndN7CPXICkh4UjXAd-344">
          <mxGeometry width="50" height="50" relative="1" as="geometry">
            <mxPoint x="-560" y="1810" as="sourcePoint" />
            <mxPoint x="-510" y="1760" as="targetPoint" />
          </mxGeometry>
        </mxCell>
        <mxCell id="e4IndN7CPXICkh4UjXAd-352" value="" style="endArrow=classic;html=1;rounded=0;exitX=1;exitY=0.3333333333333333;exitDx=0;exitDy=0;exitPerimeter=0;entryX=0.071;entryY=0.762;entryDx=0;entryDy=0;entryPerimeter=0;" edge="1" parent="1" source="e4IndN7CPXICkh4UjXAd-337" target="e4IndN7CPXICkh4UjXAd-353">
          <mxGeometry width="50" height="50" relative="1" as="geometry">
            <mxPoint x="-560" y="1990" as="sourcePoint" />
            <mxPoint x="-560" y="1770" as="targetPoint" />
          </mxGeometry>
        </mxCell>
        <mxCell id="e4IndN7CPXICkh4UjXAd-353" value="CARI &amp;amp; PILIH MENU" style="ellipse;whiteSpace=wrap;html=1;" vertex="1" parent="1">
          <mxGeometry x="-560" y="1760" width="220" height="60" as="geometry" />
        </mxCell>
        <mxCell id="e4IndN7CPXICkh4UjXAd-354" value="" style="endArrow=classic;html=1;rounded=0;exitX=1;exitY=0.3333333333333333;exitDx=0;exitDy=0;exitPerimeter=0;" edge="1" parent="1" source="e4IndN7CPXICkh4UjXAd-337">
          <mxGeometry width="50" height="50" relative="1" as="geometry">
            <mxPoint x="-560" y="1990" as="sourcePoint" />
            <mxPoint x="-560" y="1880" as="targetPoint" />
          </mxGeometry>
        </mxCell>
        <mxCell id="e4IndN7CPXICkh4UjXAd-355" value="" style="endArrow=classic;html=1;rounded=0;exitX=1;exitY=0.3333333333333333;exitDx=0;exitDy=0;exitPerimeter=0;" edge="1" parent="1" source="e4IndN7CPXICkh4UjXAd-337">
          <mxGeometry width="50" height="50" relative="1" as="geometry">
            <mxPoint x="-560" y="1990" as="sourcePoint" />
            <mxPoint x="-560" y="1960" as="targetPoint" />
          </mxGeometry>
        </mxCell>
        <mxCell id="e4IndN7CPXICkh4UjXAd-356" value="" style="endArrow=classic;html=1;rounded=0;exitX=1;exitY=0.3333333333333333;exitDx=0;exitDy=0;exitPerimeter=0;" edge="1" parent="1" source="e4IndN7CPXICkh4UjXAd-337">
          <mxGeometry width="50" height="50" relative="1" as="geometry">
            <mxPoint x="-560" y="1990" as="sourcePoint" />
            <mxPoint x="-600" y="2040" as="targetPoint" />
          </mxGeometry>
        </mxCell>
        <mxCell id="e4IndN7CPXICkh4UjXAd-357" value="" style="endArrow=classic;html=1;rounded=0;exitX=1;exitY=0.3333333333333333;exitDx=0;exitDy=0;exitPerimeter=0;" edge="1" parent="1" source="e4IndN7CPXICkh4UjXAd-337">
          <mxGeometry width="50" height="50" relative="1" as="geometry">
            <mxPoint x="-560" y="1990" as="sourcePoint" />
            <mxPoint x="-680" y="2120" as="targetPoint" />
          </mxGeometry>
        </mxCell>
        <mxCell id="e4IndN7CPXICkh4UjXAd-358" value="LIHAT DETAIL MENU" style="ellipse;whiteSpace=wrap;html=1;" vertex="1" parent="1">
          <mxGeometry x="-560" y="1850" width="180" height="60" as="geometry" />
        </mxCell>
        <mxCell id="e4IndN7CPXICkh4UjXAd-359" value="BUAT PESANAN" style="ellipse;whiteSpace=wrap;html=1;" vertex="1" parent="1">
          <mxGeometry x="-560" y="1930" width="185" height="60" as="geometry" />
        </mxCell>
        <mxCell id="e4IndN7CPXICkh4UjXAd-360" value="INPUT OPSI PENGAMBILAN" style="ellipse;whiteSpace=wrap;html=1;" vertex="1" parent="1">
          <mxGeometry x="-620" y="2030" width="190" height="60" as="geometry" />
        </mxCell>
        <mxCell id="e4IndN7CPXICkh4UjXAd-361" value="MELAKUKAN PEMBAYARAN" style="ellipse;whiteSpace=wrap;html=1;" vertex="1" parent="1">
          <mxGeometry x="-750" y="2120" width="220" height="60" as="geometry" />
        </mxCell>
        <mxCell id="e4IndN7CPXICkh4UjXAd-362" value="" style="endArrow=classic;html=1;rounded=0;entryX=0.603;entryY=0;entryDx=0;entryDy=0;entryPerimeter=0;exitX=0.681;exitY=0.948;exitDx=0;exitDy=0;exitPerimeter=0;" edge="1" parent="1" source="e4IndN7CPXICkh4UjXAd-360" target="e4IndN7CPXICkh4UjXAd-361">
          <mxGeometry width="50" height="50" relative="1" as="geometry">
            <mxPoint x="-560" y="1990" as="sourcePoint" />
            <mxPoint x="-510" y="1940" as="targetPoint" />
          </mxGeometry>
        </mxCell>
        <mxCell id="e4IndN7CPXICkh4UjXAd-363" value="" style="endArrow=classic;html=1;rounded=0;entryX=0.573;entryY=0.014;entryDx=0;entryDy=0;entryPerimeter=0;exitX=0.697;exitY=0.976;exitDx=0;exitDy=0;exitPerimeter=0;" edge="1" parent="1" source="e4IndN7CPXICkh4UjXAd-359" target="e4IndN7CPXICkh4UjXAd-360">
          <mxGeometry width="50" height="50" relative="1" as="geometry">
            <mxPoint x="-560" y="1990" as="sourcePoint" />
            <mxPoint x="-510" y="1940" as="targetPoint" />
          </mxGeometry>
        </mxCell>
        <mxCell id="e4IndN7CPXICkh4UjXAd-365" value="" style="endArrow=classic;html=1;rounded=0;entryX=0.386;entryY=0.005;entryDx=0;entryDy=0;entryPerimeter=0;exitX=1;exitY=1;exitDx=0;exitDy=0;" edge="1" parent="1" source="e4IndN7CPXICkh4UjXAd-353" target="e4IndN7CPXICkh4UjXAd-358">
          <mxGeometry width="50" height="50" relative="1" as="geometry">
            <mxPoint x="-560" y="1990" as="sourcePoint" />
            <mxPoint x="-510" y="1940" as="targetPoint" />
          </mxGeometry>
        </mxCell>
        <mxCell id="e4IndN7CPXICkh4UjXAd-366" value="&lt;font style=&quot;font-size: 23px;&quot;&gt;PEMESANAN DAN PENGANTARAN&lt;/font&gt;" style="text;html=1;align=center;verticalAlign=middle;whiteSpace=wrap;rounded=0;" vertex="1" parent="1">
          <mxGeometry x="-790" y="1460" width="250" height="30" as="geometry" />
        </mxCell>
      </root>
    </mxGraphModel>
  </diagram>
</mxfile>
